{
    "asset" : {
        "generator" : "Khronos glTF Blender I/O v1.5.17",
        "version" : "2.0"
    },
    "scene" : 0,
    "scenes" : [
        {
            "name" : "Scene",
            "nodes" : [
                2
            ]
        }
    ],
    "nodes" : [
        {
            "mesh" : 0,
            "name" : "Object675_paintmat_0"
        },
        {
            "children" : [
                0
            ],
            "name" : "Node_98",
            "translation" : [
                -3.0517578125e-05,
                0,
                76.43017578125
            ]
        },
        {
            "children" : [
                1
            ],
            "name" : "Object675",
            "rotation" : [
                0.19621804356575012,
                0.6769158840179443,
                0.6821861863136292,
                -0.19469314813613892
            ],
            "translation" : [
                -148.89169311523438,
                -196.51934814453125,
                -230.08441162109375
            ]
        }
    ],
    "materials" : [
        {
            "doubleSided" : true,
            "name" : "paintmat",
            "occlusionTexture" : {
                "index" : 0,
                "texCoord" : 1
            },
            "pbrMetallicRoughness" : {
                "baseColorTexture" : {
                    "index" : 1
                },
                "metallicFactor" : 0,
                "roughnessFactor" : 0.44999998807907104
            }
        }
    ],
    "meshes" : [
        {
            "name" : "Object675_paintmat_0",
            "primitives" : [
                {
                    "attributes" : {
                        "POSITION" : 0,
                        "NORMAL" : 1,
                        "TEXCOORD_0" : 2,
                        "TEXCOORD_1" : 3
                    },
                    "indices" : 4,
                    "material" : 0
                }
            ]
        }
    ],
    "textures" : [
        {
            "sampler" : 0,
            "source" : 0
        },
        {
            "sampler" : 0,
            "source" : 1
        }
    ],
    "images" : [
        {
            "bufferView" : 5,
            "mimeType" : "image/png",
            "name" : "metallicRoughness.png"
        },
        {
            "bufferView" : 6,
            "mimeType" : "image/jpeg",
            "name" : "baseColor.jpg"
        }
    ],
    "accessors" : [
        {
            "bufferView" : 0,
            "componentType" : 5126,
            "count" : 1832,
            "max" : [
                98.02838134765625,
                38.06446838378906,
                22.034873962402344
            ],
            "min" : [
                -98.0283203125,
                -47.73950958251953,
                -76.33453369140625
            ],
            "type" : "VEC3"
        },
        {
            "bufferView" : 1,
            "componentType" : 5126,
            "count" : 1832,
            "type" : "VEC3"
        },
        {
            "bufferView" : 2,
            "componentType" : 5126,
            "count" : 1832,
            "type" : "VEC2"
        },
        {
            "bufferView" : 3,
            "componentType" : 5126,
            "count" : 1832,
            "type" : "VEC2"
        },
        {
            "bufferView" : 4,
            "componentType" : 5123,
            "count" : 5544,
            "type" : "SCALAR"
        }
    ],
    "bufferViews" : [
        {
            "buffer" : 0,
            "byteLength" : 21984,
            "byteOffset" : 0
        },
        {
            "buffer" : 0,
            "byteLength" : 21984,
            "byteOffset" : 21984
        },
        {
            "buffer" : 0,
            "byteLength" : 14656,
            "byteOffset" : 43968
        },
        {
            "buffer" : 0,
            "byteLength" : 14656,
            "byteOffset" : 58624
        },
        {
            "buffer" : 0,
            "byteLength" : 11088,
            "byteOffset" : 73280
        },
        {
            "buffer" : 0,
            "byteLength" : 503561,
            "byteOffset" : 84368
        },
        {
            "buffer" : 0,
            "byteLength" : 1478945,
            "byteOffset" : 587932
        }
    ],
    "samplers" : [
        {
            "magFilter" : 9729,
            "minFilter" : 9987
        }
    ],
    "buffers" : [
        {
            "byteLength" : 2066880,
            "uri" : "data:application/octet-stream;base64,"
        }
    ]
}
